# xmcd CD database file
#
# Track frame offsets:
#	150
#	17126
#	33015
#	50011
#
# Disc length: 880 seconds
#
# Revision: 0
# Processed by: cddbd v1.5.1PL2 Copyright (c) Steve Scherf et al.
# Submitted via: CDex 1.51
#
DISCID=28036e04
DTITLE=石毛佐和 - 誓い☆あのね
DYEAR=2005
DGENRE=J-Pop
TTITLE0=誓い
TTITLE1=あのね
TTITLE2=誓い (Instrumental Version)
TTITLE3=あのね(Instrumental Version)
EXTD=YEAR: 2005
EXTT0=
EXTT1=
EXTT2=
EXTT3=
PLAYORDER=
